<?xml version="1.0" encoding="UTF-8" standalone="no"?>
<!DOCTYPE svg PUBLIC "-//W3C//DTD SVG 1.1//EN"
 "http://www.w3.org/Graphics/SVG/1.1/DTD/svg11.dtd">
<!-- Generated by graphviz version 2.38.0 (20140413.2041)
 -->
<!-- Title: controllers_diagram Pages: 1 -->
<svg width="596pt" height="521pt"
 viewBox="0.00 0.00 595.94 521.00" xmlns="http://www.w3.org/2000/svg" xmlns:xlink="http://www.w3.org/1999/xlink">
<g id="graph0" class="graph" transform="scale(1 1) rotate(0) translate(207.714 313.5)">
<title>controllers_diagram</title>
<polygon fill="white" stroke="none" points="-207.714,207.5 -207.714,-313.5 388.222,-313.5 388.222,207.5 -207.714,207.5"/>
<!-- _diagram_info -->
<g id="node1" class="node"><title>_diagram_info</title>
<text text-anchor="start" x="161.312" y="-212.1" font-family="Times,serif" font-size="13.00">Controllers diagram</text>
<text text-anchor="start" x="161.312" y="-199.1" font-family="Times,serif" font-size="13.00">Date: Apr 14 2015 &#45; 13:55</text>
<text text-anchor="start" x="161.312" y="-186.1" font-family="Times,serif" font-size="13.00">Migration version: 20150414124607</text>
<text text-anchor="start" x="161.312" y="-173.1" font-family="Times,serif" font-size="13.00">Generated by RailRoady 1.3.0</text>
<text text-anchor="start" x="161.312" y="-160.1" font-family="Times,serif" font-size="13.00">http://railroady.prestonlee.com</text>
</g>
<!-- ApplicationController -->
<g id="node2" class="node"><title>ApplicationController</title>
<path fill="none" stroke="black" d="M97.0342,203C97.0342,203 270.966,203 270.966,203 276.966,203 282.966,197 282.966,191 282.966,191 282.966,125 282.966,125 282.966,119 276.966,113 270.966,113 270.966,113 97.0342,113 97.0342,113 91.0342,113 85.0342,119 85.0342,125 85.0342,125 85.0342,191 85.0342,191 85.0342,197 91.0342,203 97.0342,203"/>
<text text-anchor="middle" x="184" y="128.2" font-family="Times,serif" font-size="14.00">ApplicationController</text>
<polyline fill="none" stroke="black" points="85.0342,135 282.966,135 "/>
<text text-anchor="start" x="93.0342" y="150.2" font-family="Times,serif" font-size="14.00">configure_permitted_parameters</text>
<polyline fill="none" stroke="black" points="85.0342,157 282.966,157 "/>
<polyline fill="none" stroke="black" points="85.0342,181 282.966,181 "/>
<text text-anchor="start" x="93.0342" y="196.2" font-family="Times,serif" font-size="14.00">_layout</text>
</g>
<!-- BookingsController -->
<g id="node3" class="node"><title>BookingsController</title>
<path fill="none" stroke="black" d="M97.3896,84C97.3896,84 200.61,84 200.61,84 206.61,84 212.61,78 212.61,72 212.61,72 212.61,-106 212.61,-106 212.61,-112 206.61,-118 200.61,-118 200.61,-118 97.3896,-118 97.3896,-118 91.3896,-118 85.3896,-112 85.3896,-106 85.3896,-106 85.3896,72 85.3896,72 85.3896,78 91.3896,84 97.3896,84"/>
<text text-anchor="middle" x="149" y="-102.8" font-family="Times,serif" font-size="14.00">BookingsController</text>
<polyline fill="none" stroke="black" points="85.3896,-96 212.61,-96 "/>
<text text-anchor="start" x="93.3896" y="-80.8" font-family="Times,serif" font-size="14.00">create</text>
<text text-anchor="start" x="93.3896" y="-66.8" font-family="Times,serif" font-size="14.00">destroy</text>
<text text-anchor="start" x="93.3896" y="-52.8" font-family="Times,serif" font-size="14.00">edit</text>
<text text-anchor="start" x="93.3896" y="-38.8" font-family="Times,serif" font-size="14.00">index</text>
<text text-anchor="start" x="93.3896" y="-24.8" font-family="Times,serif" font-size="14.00">new</text>
<text text-anchor="start" x="93.3896" y="-10.8" font-family="Times,serif" font-size="14.00">show</text>
<text text-anchor="start" x="93.3896" y="3.2" font-family="Times,serif" font-size="14.00">update</text>
<polyline fill="none" stroke="black" points="85.3896,10 212.61,10 "/>
<polyline fill="none" stroke="black" points="85.3896,34 212.61,34 "/>
<text text-anchor="start" x="93.3896" y="49.2" font-family="Times,serif" font-size="14.00">_layout</text>
<text text-anchor="start" x="93.3896" y="63.2" font-family="Times,serif" font-size="14.00">find_classroom</text>
<text text-anchor="start" x="93.3896" y="77.2" font-family="Times,serif" font-size="14.00">save</text>
</g>
<!-- ClassroomsController -->
<g id="node4" class="node"><title>ClassroomsController</title>
<path fill="none" stroke="black" d="M-73.4414,101C-73.4414,101 41.4414,101 41.4414,101 47.4414,101 53.4414,95 53.4414,89 53.4414,89 53.4414,-61 53.4414,-61 53.4414,-67 47.4414,-73 41.4414,-73 41.4414,-73 -73.4414,-73 -73.4414,-73 -79.4414,-73 -85.4414,-67 -85.4414,-61 -85.4414,-61 -85.4414,89 -85.4414,89 -85.4414,95 -79.4414,101 -73.4414,101"/>
<text text-anchor="middle" x="-16" y="-57.8" font-family="Times,serif" font-size="14.00">ClassroomsController</text>
<polyline fill="none" stroke="black" points="-85.4414,-51 53.4414,-51 "/>
<text text-anchor="start" x="-77.4414" y="-35.8" font-family="Times,serif" font-size="14.00">create</text>
<text text-anchor="start" x="-77.4414" y="-21.8" font-family="Times,serif" font-size="14.00">destroy</text>
<text text-anchor="start" x="-77.4414" y="-7.8" font-family="Times,serif" font-size="14.00">edit</text>
<text text-anchor="start" x="-77.4414" y="6.2" font-family="Times,serif" font-size="14.00">index</text>
<text text-anchor="start" x="-77.4414" y="20.2" font-family="Times,serif" font-size="14.00">new</text>
<text text-anchor="start" x="-77.4414" y="34.2" font-family="Times,serif" font-size="14.00">update</text>
<polyline fill="none" stroke="black" points="-85.4414,41 53.4414,41 "/>
<polyline fill="none" stroke="black" points="-85.4414,65 53.4414,65 "/>
<text text-anchor="start" x="-77.4414" y="80.2" font-family="Times,serif" font-size="14.00">_layout</text>
<text text-anchor="start" x="-77.4414" y="94.2" font-family="Times,serif" font-size="14.00">classroom_params</text>
</g>
<!-- CohortsController -->
<g id="node5" class="node"><title>CohortsController</title>
<path fill="none" stroke="black" d="M-55.9414,-103C-55.9414,-103 37.9414,-103 37.9414,-103 43.9414,-103 49.9414,-109 49.9414,-115 49.9414,-115 49.9414,-293 49.9414,-293 49.9414,-299 43.9414,-305 37.9414,-305 37.9414,-305 -55.9414,-305 -55.9414,-305 -61.9414,-305 -67.9414,-299 -67.9414,-293 -67.9414,-293 -67.9414,-115 -67.9414,-115 -67.9414,-109 -61.9414,-103 -55.9414,-103"/>
<text text-anchor="middle" x="-9" y="-289.8" font-family="Times,serif" font-size="14.00">CohortsController</text>
<polyline fill="none" stroke="black" points="-67.9414,-283 49.9414,-283 "/>
<text text-anchor="start" x="-59.9414" y="-267.8" font-family="Times,serif" font-size="14.00">create</text>
<text text-anchor="start" x="-59.9414" y="-253.8" font-family="Times,serif" font-size="14.00">destroy</text>
<text text-anchor="start" x="-59.9414" y="-239.8" font-family="Times,serif" font-size="14.00">edit</text>
<text text-anchor="start" x="-59.9414" y="-225.8" font-family="Times,serif" font-size="14.00">index</text>
<text text-anchor="start" x="-59.9414" y="-211.8" font-family="Times,serif" font-size="14.00">new</text>
<text text-anchor="start" x="-59.9414" y="-197.8" font-family="Times,serif" font-size="14.00">show</text>
<text text-anchor="start" x="-59.9414" y="-183.8" font-family="Times,serif" font-size="14.00">update</text>
<polyline fill="none" stroke="black" points="-67.9414,-177 49.9414,-177 "/>
<polyline fill="none" stroke="black" points="-67.9414,-153 49.9414,-153 "/>
<text text-anchor="start" x="-59.9414" y="-137.8" font-family="Times,serif" font-size="14.00">_layout</text>
<text text-anchor="start" x="-59.9414" y="-123.8" font-family="Times,serif" font-size="14.00">cohort_params</text>
<text text-anchor="start" x="-59.9414" y="-109.8" font-family="Times,serif" font-size="14.00">set_cohort</text>
</g>
<!-- CourseTypesController -->
<g id="node6" class="node"><title>CourseTypesController</title>
<path fill="none" stroke="black" d="M249.778,84C249.778,84 372.222,84 372.222,84 378.222,84 384.222,78 384.222,72 384.222,72 384.222,-8 384.222,-8 384.222,-14 378.222,-20 372.222,-20 372.222,-20 249.778,-20 249.778,-20 243.778,-20 237.778,-14 237.778,-8 237.778,-8 237.778,72 237.778,72 237.778,78 243.778,84 249.778,84"/>
<text text-anchor="middle" x="311" y="-4.8" font-family="Times,serif" font-size="14.00">CourseTypesController</text>
<polyline fill="none" stroke="black" points="237.778,2 384.222,2 "/>
<text text-anchor="start" x="245.778" y="17.2" font-family="Times,serif" font-size="14.00">index</text>
<text text-anchor="start" x="245.778" y="31.2" font-family="Times,serif" font-size="14.00">show</text>
<polyline fill="none" stroke="black" points="237.778,38 384.222,38 "/>
<polyline fill="none" stroke="black" points="237.778,62 384.222,62 "/>
<text text-anchor="start" x="245.778" y="77.2" font-family="Times,serif" font-size="14.00">_layout</text>
</g>
<!-- UsersController -->
<g id="node7" class="node"><title>UsersController</title>
<path fill="none" stroke="black" d="M-191.714,-205C-191.714,-205 -110.286,-205 -110.286,-205 -104.286,-205 -98.2861,-211 -98.2861,-217 -98.2861,-217 -98.2861,-297 -98.2861,-297 -98.2861,-303 -104.286,-309 -110.286,-309 -110.286,-309 -191.714,-309 -191.714,-309 -197.714,-309 -203.714,-303 -203.714,-297 -203.714,-297 -203.714,-217 -203.714,-217 -203.714,-211 -197.714,-205 -191.714,-205"/>
<text text-anchor="middle" x="-151" y="-293.8" font-family="Times,serif" font-size="14.00">UsersController</text>
<polyline fill="none" stroke="black" points="-203.714,-287 -98.2861,-287 "/>
<text text-anchor="start" x="-195.714" y="-271.8" font-family="Times,serif" font-size="14.00">index</text>
<text text-anchor="start" x="-195.714" y="-257.8" font-family="Times,serif" font-size="14.00">show</text>
<polyline fill="none" stroke="black" points="-203.714,-251 -98.2861,-251 "/>
<polyline fill="none" stroke="black" points="-203.714,-227 -98.2861,-227 "/>
<text text-anchor="start" x="-195.714" y="-211.8" font-family="Times,serif" font-size="14.00">_layout</text>
</g>
</g>
</svg>
