<?xml version="1.0" encoding="UTF-8" standalone="no"?>
<!DOCTYPE svg PUBLIC "-//W3C//DTD SVG 1.1//EN"
 "http://www.w3.org/Graphics/SVG/1.1/DTD/svg11.dtd">
<!-- Generated by graphviz version 2.38.0 (20140413.2041)
 -->
<!-- Title: models_diagram Pages: 1 -->
<svg width="557pt" height="225pt"
 viewBox="0.00 0.00 556.69 225.00" xmlns="http://www.w3.org/2000/svg" xmlns:xlink="http://www.w3.org/1999/xlink">
<g id="graph0" class="graph" transform="scale(1 1) rotate(0) translate(4 221)">
<title>models_diagram</title>
<polygon fill="white" stroke="none" points="-4,4 -4,-221 552.688,-221 552.688,4 -4,4"/>
<!-- _diagram_info -->
<g id="node1" class="node"><title>_diagram_info</title>
<text text-anchor="start" x="8" y="-202.6" font-family="Times,serif" font-size="13.00">Models diagram</text>
<text text-anchor="start" x="8" y="-189.6" font-family="Times,serif" font-size="13.00">Date: Apr 14 2015 &#45; 13:55</text>
<text text-anchor="start" x="8" y="-176.6" font-family="Times,serif" font-size="13.00">Migration version: 20150414124607</text>
<text text-anchor="start" x="8" y="-163.6" font-family="Times,serif" font-size="13.00">Generated by RailRoady 1.3.0</text>
<text text-anchor="start" x="8" y="-150.6" font-family="Times,serif" font-size="13.00">http://railroady.prestonlee.com</text>
</g>
<!-- Booking -->
<g id="node2" class="node"><title>Booking</title>
<ellipse fill="none" stroke="black" cx="273.688" cy="-90" rx="40.6421" ry="18"/>
<text text-anchor="middle" x="273.688" y="-85.8" font-family="Times,serif" font-size="14.00">Booking</text>
</g>
<!-- Classroom -->
<g id="node3" class="node"><title>Classroom</title>
<ellipse fill="none" stroke="black" cx="273.688" cy="-180.5" rx="47.8754" ry="18"/>
<text text-anchor="middle" x="273.688" y="-176.3" font-family="Times,serif" font-size="14.00">Classroom</text>
</g>
<!-- Classroom&#45;&gt;Booking -->
<g id="edge1" class="edge"><title>Classroom&#45;&gt;Booking</title>
<path fill="none" stroke="#e3092a" d="M273.688,-154.189C273.688,-142.971 273.688,-129.752 273.688,-118.311"/>
<ellipse fill="none" stroke="#e3092a" cx="273.688" cy="-158.436" rx="4" ry="4"/>
<polygon fill="#e3092a" stroke="#e3092a" points="273.688,-118.011 278.188,-108.011 273.688,-113.011 273.688,-108.011 273.688,-108.011 273.688,-108.011 273.688,-113.011 269.188,-108.011 273.688,-118.011 273.688,-118.011"/>
</g>
<!-- Cohort -->
<g id="node4" class="node"><title>Cohort</title>
<ellipse fill="none" stroke="black" cx="399.688" cy="-180.5" rx="34.8458" ry="18"/>
<text text-anchor="middle" x="399.688" y="-176.3" font-family="Times,serif" font-size="14.00">Cohort</text>
</g>
<!-- Cohort&#45;&gt;Booking -->
<g id="edge5" class="edge"><title>Cohort&#45;&gt;Booking</title>
<path fill="none" stroke="#e0cbfe" d="M373.384,-161.025C352.781,-146.554 324.14,-126.436 302.84,-111.476"/>
<ellipse fill="none" stroke="#e0cbfe" cx="376.727" cy="-163.373" rx="4.00002" ry="4.00002"/>
<polygon fill="#e0cbfe" stroke="#e0cbfe" points="302.677,-111.362 297.081,-101.932 298.586,-108.488 294.494,-105.614 294.494,-105.614 294.494,-105.614 298.586,-108.488 291.908,-109.296 302.677,-111.362 302.677,-111.362"/>
</g>
<!-- Contract -->
<g id="node5" class="node"><title>Contract</title>
<ellipse fill="none" stroke="black" cx="431.688" cy="-18" rx="40.6162" ry="18"/>
<text text-anchor="middle" x="431.688" y="-13.8" font-family="Times,serif" font-size="14.00">Contract</text>
</g>
<!-- Cohort&#45;&gt;Contract -->
<g id="edge2" class="edge"><title>Cohort&#45;&gt;Contract</title>
<path fill="none" stroke="#5b188a" d="M381.568,-157.242C365.842,-135.044 347.632,-100.272 361.688,-72 369.036,-57.2202 382.691,-45.4613 396.004,-36.812"/>
<ellipse fill="none" stroke="#5b188a" cx="383.958" cy="-160.486" rx="4.00002" ry="4.00002"/>
<polygon fill="#5b188a" stroke="#5b188a" points="396.083,-36.7638 406.967,-35.4239 400.358,-34.1702 404.633,-31.5766 404.633,-31.5766 404.633,-31.5766 400.358,-34.1702 402.298,-27.7294 396.083,-36.7638 396.083,-36.7638"/>
</g>
<!-- CourseType -->
<g id="node6" class="node"><title>CourseType</title>
<ellipse fill="none" stroke="black" cx="423.688" cy="-90" rx="52.9279" ry="18"/>
<text text-anchor="middle" x="423.688" y="-85.8" font-family="Times,serif" font-size="14.00">CourseType</text>
</g>
<!-- Cohort&#45;&gt;CourseType -->
<g id="edge4" class="edge"><title>Cohort&#45;&gt;CourseType</title>
<path fill="none" stroke="#cbeaf1" d="M406.439,-154.603C409.717,-142.517 413.645,-128.033 416.924,-115.941"/>
<ellipse fill="none" stroke="#cbeaf1" cx="405.362" cy="-158.576" rx="4.00001" ry="4.00001"/>
<ellipse fill="#cbeaf1" stroke="#cbeaf1" cx="418.028" cy="-111.872" rx="4.00001" ry="4.00001"/>
</g>
<!-- User -->
<g id="node7" class="node"><title>User</title>
<ellipse fill="none" stroke="black" cx="521.688" cy="-90" rx="27" ry="18"/>
<text text-anchor="middle" x="521.688" y="-85.8" font-family="Times,serif" font-size="14.00">User</text>
</g>
<!-- Cohort&#45;&gt;User -->
<g id="edge3" class="edge"><title>Cohort&#45;&gt;User</title>
<path fill="none" stroke="#7ff6c8" d="M427.211,-159.535C447.8,-144.599 475.761,-124.316 495.916,-109.695"/>
<polygon fill="#7ff6c8" stroke="#7ff6c8" points="427.114,-159.605 416.377,-161.834 423.066,-162.541 419.019,-165.477 419.019,-165.477 419.019,-165.477 423.066,-162.541 421.661,-169.119 427.114,-159.605 427.114,-159.605"/>
<polygon fill="#7ff6c8" stroke="#7ff6c8" points="495.937,-109.68 506.674,-107.451 499.984,-106.744 504.031,-103.808 504.031,-103.808 504.031,-103.808 499.984,-106.744 501.389,-100.166 495.937,-109.68 495.937,-109.68"/>
</g>
<!-- User&#45;&gt;Contract -->
<g id="edge6" class="edge"><title>User&#45;&gt;Contract</title>
<path fill="none" stroke="#9dd6c5" d="M498.325,-70.8288C486.386,-61.5435 471.782,-50.1843 459.291,-40.4692"/>
<ellipse fill="none" stroke="#9dd6c5" cx="501.602" cy="-73.3778" rx="4.00002" ry="4.00002"/>
<polygon fill="#9dd6c5" stroke="#9dd6c5" points="458.933,-40.1911 453.803,-30.4996 454.987,-37.1214 451.04,-34.0517 451.04,-34.0517 451.04,-34.0517 454.987,-37.1214 448.277,-37.6038 458.933,-40.1911 458.933,-40.1911"/>
</g>
</g>
</svg>
