<?xml version="1.0" encoding="UTF-8" standalone="no"?>
<!DOCTYPE svg PUBLIC "-//W3C//DTD SVG 1.1//EN"
 "http://www.w3.org/Graphics/SVG/1.1/DTD/svg11.dtd">
<!-- Generated by graphviz version 2.38.0 (20140413.2041)
 -->
<!-- Title: models_diagram Pages: 1 -->
<svg width="525pt" height="523pt"
 viewBox="0.00 0.00 525.40 523.00" xmlns="http://www.w3.org/2000/svg" xmlns:xlink="http://www.w3.org/1999/xlink">
<g id="graph0" class="graph" transform="scale(1 1) rotate(0) translate(4 519)">
<title>models_diagram</title>
<polygon fill="white" stroke="none" points="-4,4 -4,-519 521.401,-519 521.401,4 -4,4"/>
<!-- _diagram_info -->
<g id="node1" class="node"><title>_diagram_info</title>
<text text-anchor="start" x="8" y="-479.6" font-family="Times,serif" font-size="13.00">Models diagram</text>
<text text-anchor="start" x="8" y="-466.6" font-family="Times,serif" font-size="13.00">Date: Apr 13 2015 &#45; 15:02</text>
<text text-anchor="start" x="8" y="-453.6" font-family="Times,serif" font-size="13.00">Migration version: 20150413133138</text>
<text text-anchor="start" x="8" y="-440.6" font-family="Times,serif" font-size="13.00">Generated by RailRoady 1.3.0</text>
<text text-anchor="start" x="8" y="-427.6" font-family="Times,serif" font-size="13.00">http://railroady.prestonlee.com</text>
</g>
<!-- Cohort -->
<g id="node2" class="node"><title>Cohort</title>
<path fill="none" stroke="black" d="M237.182,-400.5C237.182,-400.5 346.193,-400.5 346.193,-400.5 352.193,-400.5 358.193,-406.5 358.193,-412.5 358.193,-412.5 358.193,-502.5 358.193,-502.5 358.193,-508.5 352.193,-514.5 346.193,-514.5 346.193,-514.5 237.182,-514.5 237.182,-514.5 231.182,-514.5 225.182,-508.5 225.182,-502.5 225.182,-502.5 225.182,-412.5 225.182,-412.5 225.182,-406.5 231.182,-400.5 237.182,-400.5"/>
<text text-anchor="middle" x="291.688" y="-499.3" font-family="Times,serif" font-size="14.00">Cohort</text>
<polyline fill="none" stroke="black" points="225.182,-492.5 358.193,-492.5 "/>
<text text-anchor="start" x="233.182" y="-477.3" font-family="Times,serif" font-size="14.00">id :integer</text>
<text text-anchor="start" x="233.182" y="-463.3" font-family="Times,serif" font-size="14.00">name :string</text>
<text text-anchor="start" x="233.182" y="-449.3" font-family="Times,serif" font-size="14.00">start_date :date</text>
<text text-anchor="start" x="233.182" y="-435.3" font-family="Times,serif" font-size="14.00">end_date :date</text>
<text text-anchor="start" x="233.182" y="-421.3" font-family="Times,serif" font-size="14.00">created_at :datetime</text>
<text text-anchor="start" x="233.182" y="-407.3" font-family="Times,serif" font-size="14.00">updated_at :datetime</text>
</g>
<!-- Contract -->
<g id="node3" class="node"><title>Contract</title>
<path fill="none" stroke="black" d="M172.182,-0.5C172.182,-0.5 281.193,-0.5 281.193,-0.5 287.193,-0.5 293.193,-6.5 293.193,-12.5 293.193,-12.5 293.193,-88.5 293.193,-88.5 293.193,-94.5 287.193,-100.5 281.193,-100.5 281.193,-100.5 172.182,-100.5 172.182,-100.5 166.182,-100.5 160.182,-94.5 160.182,-88.5 160.182,-88.5 160.182,-12.5 160.182,-12.5 160.182,-6.5 166.182,-0.5 172.182,-0.5"/>
<text text-anchor="middle" x="226.688" y="-85.3" font-family="Times,serif" font-size="14.00">Contract</text>
<polyline fill="none" stroke="black" points="160.182,-78.5 293.193,-78.5 "/>
<text text-anchor="start" x="168.182" y="-63.3" font-family="Times,serif" font-size="14.00">id :integer</text>
<text text-anchor="start" x="168.182" y="-49.3" font-family="Times,serif" font-size="14.00">user_id :integer</text>
<text text-anchor="start" x="168.182" y="-35.3" font-family="Times,serif" font-size="14.00">cohort_id :integer</text>
<text text-anchor="start" x="168.182" y="-21.3" font-family="Times,serif" font-size="14.00">created_at :datetime</text>
<text text-anchor="start" x="168.182" y="-7.3" font-family="Times,serif" font-size="14.00">updated_at :datetime</text>
</g>
<!-- Cohort&#45;&gt;Contract -->
<g id="edge1" class="edge"><title>Cohort&#45;&gt;Contract</title>
<path fill="none" stroke="#dbad59" d="M218.34,-399.278C199.231,-383.594 183.221,-369.409 180.688,-364 137.895,-272.636 156.041,-234.832 180.688,-137 182.98,-127.902 186.45,-118.718 190.478,-109.915"/>
<ellipse fill="none" stroke="#dbad59" cx="221.823" cy="-402.117" rx="4.00002" ry="4.00002"/>
<polygon fill="#dbad59" stroke="#dbad59" points="190.486,-109.898 198.899,-102.864 192.668,-105.399 194.851,-100.9 194.851,-100.9 194.851,-100.9 192.668,-105.399 190.802,-98.9362 190.486,-109.898 190.486,-109.898"/>
</g>
<!-- User -->
<g id="node4" class="node"><title>User</title>
<path fill="none" stroke="black" d="M201.41,-137.5C201.41,-137.5 381.966,-137.5 381.966,-137.5 387.966,-137.5 393.966,-143.5 393.966,-149.5 393.966,-149.5 393.966,-351.5 393.966,-351.5 393.966,-357.5 387.966,-363.5 381.966,-363.5 381.966,-363.5 201.41,-363.5 201.41,-363.5 195.41,-363.5 189.41,-357.5 189.41,-351.5 189.41,-351.5 189.41,-149.5 189.41,-149.5 189.41,-143.5 195.41,-137.5 201.41,-137.5"/>
<text text-anchor="middle" x="291.688" y="-348.3" font-family="Times,serif" font-size="14.00">User</text>
<polyline fill="none" stroke="black" points="189.41,-341.5 393.966,-341.5 "/>
<text text-anchor="start" x="197.41" y="-326.3" font-family="Times,serif" font-size="14.00">id :integer</text>
<text text-anchor="start" x="197.41" y="-312.3" font-family="Times,serif" font-size="14.00">email :string</text>
<text text-anchor="start" x="197.41" y="-298.3" font-family="Times,serif" font-size="14.00">encrypted_password :string</text>
<text text-anchor="start" x="197.41" y="-284.3" font-family="Times,serif" font-size="14.00">reset_password_token :string</text>
<text text-anchor="start" x="197.41" y="-270.3" font-family="Times,serif" font-size="14.00">reset_password_sent_at :datetime</text>
<text text-anchor="start" x="197.41" y="-256.3" font-family="Times,serif" font-size="14.00">remember_created_at :datetime</text>
<text text-anchor="start" x="197.41" y="-242.3" font-family="Times,serif" font-size="14.00">sign_in_count :integer</text>
<text text-anchor="start" x="197.41" y="-228.3" font-family="Times,serif" font-size="14.00">current_sign_in_at :datetime</text>
<text text-anchor="start" x="197.41" y="-214.3" font-family="Times,serif" font-size="14.00">last_sign_in_at :datetime</text>
<text text-anchor="start" x="197.41" y="-200.3" font-family="Times,serif" font-size="14.00">current_sign_in_ip :string</text>
<text text-anchor="start" x="197.41" y="-186.3" font-family="Times,serif" font-size="14.00">last_sign_in_ip :string</text>
<text text-anchor="start" x="197.41" y="-172.3" font-family="Times,serif" font-size="14.00">created_at :datetime</text>
<text text-anchor="start" x="197.41" y="-158.3" font-family="Times,serif" font-size="14.00">updated_at :datetime</text>
<text text-anchor="start" x="197.41" y="-144.3" font-family="Times,serif" font-size="14.00">role :string</text>
</g>
<!-- Cohort&#45;&gt;User -->
<g id="edge2" class="edge"><title>Cohort&#45;&gt;User</title>
<path fill="none" stroke="#cd2422" d="M291.688,-390.282C291.688,-384.947 291.688,-379.462 291.688,-373.895"/>
<polygon fill="#cd2422" stroke="#cd2422" points="291.688,-390.483 287.188,-400.483 291.688,-395.483 291.688,-400.483 291.688,-400.483 291.688,-400.483 291.688,-395.483 296.188,-400.483 291.688,-390.483 291.688,-390.483"/>
<polygon fill="#cd2422" stroke="#cd2422" points="291.688,-373.802 296.188,-363.802 291.688,-368.802 291.688,-363.802 291.688,-363.802 291.688,-363.802 291.688,-368.802 287.188,-363.803 291.688,-373.802 291.688,-373.802"/>
</g>
<!-- CourseType -->
<g id="node5" class="node"><title>CourseType</title>
<ellipse fill="none" stroke="black" cx="464.688" cy="-250.5" rx="52.9279" ry="18"/>
<text text-anchor="middle" x="464.688" y="-246.3" font-family="Times,serif" font-size="14.00">CourseType</text>
</g>
<!-- Cohort&#45;&gt;CourseType -->
<g id="edge3" class="edge"><title>Cohort&#45;&gt;CourseType</title>
<path fill="none" stroke="#4a5993" d="M364.49,-402.538C378.056,-390.688 391.473,-377.591 402.688,-364 425.131,-336.801 443.503,-300.281 454.271,-276.331"/>
<ellipse fill="none" stroke="#4a5993" cx="361.288" cy="-405.287" rx="4.00002" ry="4.00002"/>
<ellipse fill="#4a5993" stroke="#4a5993" cx="456.012" cy="-272.383" rx="4.00002" ry="4.00002"/>
</g>
<!-- User&#45;&gt;Contract -->
<g id="edge4" class="edge"><title>User&#45;&gt;Contract</title>
<path fill="none" stroke="#464109" d="M252.373,-129.741C250.206,-123.141 248.082,-116.671 246.041,-110.454"/>
<ellipse fill="none" stroke="#464109" cx="253.666" cy="-133.681" rx="4.00001" ry="4.00001"/>
<polygon fill="#464109" stroke="#464109" points="246.027,-110.411 247.184,-99.5066 244.468,-105.661 242.908,-100.91 242.908,-100.91 242.908,-100.91 244.468,-105.661 238.633,-102.314 246.027,-110.411 246.027,-110.411"/>
</g>
</g>
</svg>
