<?xml version="1.0" encoding="UTF-8" standalone="no"?>
<!DOCTYPE svg PUBLIC "-//W3C//DTD SVG 1.1//EN"
 "http://www.w3.org/Graphics/SVG/1.1/DTD/svg11.dtd">
<!-- Generated by graphviz version 2.38.0 (20140413.2041)
 -->
<!-- Title: models_diagram Pages: 1 -->
<svg width="393pt" height="225pt"
 viewBox="0.00 0.00 392.69 225.00" xmlns="http://www.w3.org/2000/svg" xmlns:xlink="http://www.w3.org/1999/xlink">
<g id="graph0" class="graph" transform="scale(1 1) rotate(0) translate(4 221)">
<title>models_diagram</title>
<polygon fill="white" stroke="none" points="-4,4 -4,-221 388.688,-221 388.688,4 -4,4"/>
<!-- _diagram_info -->
<g id="node1" class="node"><title>_diagram_info</title>
<text text-anchor="start" x="8" y="-202.6" font-family="Times,serif" font-size="13.00">Models diagram</text>
<text text-anchor="start" x="8" y="-189.6" font-family="Times,serif" font-size="13.00">Date: Apr 13 2015 &#45; 15:02</text>
<text text-anchor="start" x="8" y="-176.6" font-family="Times,serif" font-size="13.00">Migration version: 20150413133138</text>
<text text-anchor="start" x="8" y="-163.6" font-family="Times,serif" font-size="13.00">Generated by RailRoady 1.3.0</text>
<text text-anchor="start" x="8" y="-150.6" font-family="Times,serif" font-size="13.00">http://railroady.prestonlee.com</text>
</g>
<!-- Cohort -->
<g id="node2" class="node"><title>Cohort</title>
<ellipse fill="none" stroke="black" cx="259.688" cy="-180.5" rx="34.8458" ry="18"/>
<text text-anchor="middle" x="259.688" y="-176.3" font-family="Times,serif" font-size="14.00">Cohort</text>
</g>
<!-- Contract -->
<g id="node3" class="node"><title>Contract</title>
<ellipse fill="none" stroke="black" cx="267.688" cy="-18" rx="40.6162" ry="18"/>
<text text-anchor="middle" x="267.688" y="-13.8" font-family="Times,serif" font-size="14.00">Contract</text>
</g>
<!-- Cohort&#45;&gt;Contract -->
<g id="edge1" class="edge"><title>Cohort&#45;&gt;Contract</title>
<path fill="none" stroke="#5c7231" d="M235.068,-159.852C211.608,-138.6 182.016,-103.523 197.688,-72 205.036,-57.2202 218.691,-45.4613 232.004,-36.812"/>
<ellipse fill="none" stroke="#5c7231" cx="238.166" cy="-162.569" rx="4.00002" ry="4.00002"/>
<polygon fill="#5c7231" stroke="#5c7231" points="232.083,-36.7638 242.967,-35.4239 236.358,-34.1702 240.633,-31.5766 240.633,-31.5766 240.633,-31.5766 236.358,-34.1702 238.298,-27.7294 232.083,-36.7638 232.083,-36.7638"/>
</g>
<!-- CourseType -->
<g id="node4" class="node"><title>CourseType</title>
<ellipse fill="none" stroke="black" cx="259.688" cy="-90" rx="52.9279" ry="18"/>
<text text-anchor="middle" x="259.688" y="-85.8" font-family="Times,serif" font-size="14.00">CourseType</text>
</g>
<!-- Cohort&#45;&gt;CourseType -->
<g id="edge3" class="edge"><title>Cohort&#45;&gt;CourseType</title>
<path fill="none" stroke="#13913e" d="M259.688,-154.189C259.688,-142.277 259.688,-128.109 259.688,-116.21"/>
<ellipse fill="none" stroke="#13913e" cx="259.688" cy="-158.436" rx="4" ry="4"/>
<ellipse fill="#13913e" stroke="#13913e" cx="259.688" cy="-112.011" rx="4" ry="4"/>
</g>
<!-- User -->
<g id="node5" class="node"><title>User</title>
<ellipse fill="none" stroke="black" cx="357.688" cy="-90" rx="27" ry="18"/>
<text text-anchor="middle" x="357.688" y="-85.8" font-family="Times,serif" font-size="14.00">User</text>
</g>
<!-- Cohort&#45;&gt;User -->
<g id="edge2" class="edge"><title>Cohort&#45;&gt;User</title>
<path fill="none" stroke="#029e6b" d="M284.2,-157.364C299.711,-143.356 319.629,-125.37 334.814,-111.656"/>
<polygon fill="#029e6b" stroke="#029e6b" points="283.734,-157.785 273.296,-161.147 280.023,-161.136 276.312,-164.487 276.312,-164.487 276.312,-164.487 280.023,-161.136 279.328,-167.827 283.734,-157.785 283.734,-157.785"/>
<polygon fill="#029e6b" stroke="#029e6b" points="334.854,-111.62 345.292,-108.258 338.565,-108.269 342.276,-104.918 342.276,-104.918 342.276,-104.918 338.565,-108.269 339.26,-101.578 334.854,-111.62 334.854,-111.62"/>
</g>
<!-- User&#45;&gt;Contract -->
<g id="edge4" class="edge"><title>User&#45;&gt;Contract</title>
<path fill="none" stroke="#63d0bd" d="M334.325,-70.8288C322.386,-61.5435 307.782,-50.1843 295.291,-40.4692"/>
<ellipse fill="none" stroke="#63d0bd" cx="337.602" cy="-73.3778" rx="4.00002" ry="4.00002"/>
<polygon fill="#63d0bd" stroke="#63d0bd" points="294.933,-40.1911 289.803,-30.4996 290.987,-37.1214 287.04,-34.0517 287.04,-34.0517 287.04,-34.0517 290.987,-37.1214 284.277,-37.6038 294.933,-40.1911 294.933,-40.1911"/>
</g>
</g>
</svg>
