<?xml version="1.0" encoding="UTF-8" standalone="no"?>
<!DOCTYPE svg PUBLIC "-//W3C//DTD SVG 1.1//EN"
 "http://www.w3.org/Graphics/SVG/1.1/DTD/svg11.dtd">
<!-- Generated by graphviz version 2.38.0 (20140413.2041)
 -->
<!-- Title: models_diagram Pages: 1 -->
<svg width="589pt" height="523pt"
 viewBox="0.00 0.00 588.97 523.00" xmlns="http://www.w3.org/2000/svg" xmlns:xlink="http://www.w3.org/1999/xlink">
<g id="graph0" class="graph" transform="scale(1 1) rotate(0) translate(4 519)">
<title>models_diagram</title>
<polygon fill="white" stroke="none" points="-4,4 -4,-519 584.966,-519 584.966,4 -4,4"/>
<!-- _diagram_info -->
<g id="node1" class="node"><title>_diagram_info</title>
<text text-anchor="start" x="8" y="-479.6" font-family="Times,serif" font-size="13.00">Models diagram</text>
<text text-anchor="start" x="8" y="-466.6" font-family="Times,serif" font-size="13.00">Date: Apr 13 2015 &#45; 15:04</text>
<text text-anchor="start" x="8" y="-453.6" font-family="Times,serif" font-size="13.00">Migration version: 20150413134517</text>
<text text-anchor="start" x="8" y="-440.6" font-family="Times,serif" font-size="13.00">Generated by RailRoady 1.3.0</text>
<text text-anchor="start" x="8" y="-427.6" font-family="Times,serif" font-size="13.00">http://railroady.prestonlee.com</text>
</g>
<!-- Cohort -->
<g id="node2" class="node"><title>Cohort</title>
<path fill="none" stroke="black" d="M237.182,-400.5C237.182,-400.5 346.193,-400.5 346.193,-400.5 352.193,-400.5 358.193,-406.5 358.193,-412.5 358.193,-412.5 358.193,-502.5 358.193,-502.5 358.193,-508.5 352.193,-514.5 346.193,-514.5 346.193,-514.5 237.182,-514.5 237.182,-514.5 231.182,-514.5 225.182,-508.5 225.182,-502.5 225.182,-502.5 225.182,-412.5 225.182,-412.5 225.182,-406.5 231.182,-400.5 237.182,-400.5"/>
<text text-anchor="middle" x="291.688" y="-499.3" font-family="Times,serif" font-size="14.00">Cohort</text>
<polyline fill="none" stroke="black" points="225.182,-492.5 358.193,-492.5 "/>
<text text-anchor="start" x="233.182" y="-477.3" font-family="Times,serif" font-size="14.00">id :integer</text>
<text text-anchor="start" x="233.182" y="-463.3" font-family="Times,serif" font-size="14.00">name :string</text>
<text text-anchor="start" x="233.182" y="-449.3" font-family="Times,serif" font-size="14.00">start_date :date</text>
<text text-anchor="start" x="233.182" y="-435.3" font-family="Times,serif" font-size="14.00">end_date :date</text>
<text text-anchor="start" x="233.182" y="-421.3" font-family="Times,serif" font-size="14.00">created_at :datetime</text>
<text text-anchor="start" x="233.182" y="-407.3" font-family="Times,serif" font-size="14.00">updated_at :datetime</text>
</g>
<!-- Contract -->
<g id="node3" class="node"><title>Contract</title>
<path fill="none" stroke="black" d="M283.182,-0.5C283.182,-0.5 392.193,-0.5 392.193,-0.5 398.193,-0.5 404.193,-6.5 404.193,-12.5 404.193,-12.5 404.193,-88.5 404.193,-88.5 404.193,-94.5 398.193,-100.5 392.193,-100.5 392.193,-100.5 283.182,-100.5 283.182,-100.5 277.182,-100.5 271.182,-94.5 271.182,-88.5 271.182,-88.5 271.182,-12.5 271.182,-12.5 271.182,-6.5 277.182,-0.5 283.182,-0.5"/>
<text text-anchor="middle" x="337.688" y="-85.3" font-family="Times,serif" font-size="14.00">Contract</text>
<polyline fill="none" stroke="black" points="271.182,-78.5 404.193,-78.5 "/>
<text text-anchor="start" x="279.182" y="-63.3" font-family="Times,serif" font-size="14.00">id :integer</text>
<text text-anchor="start" x="279.182" y="-49.3" font-family="Times,serif" font-size="14.00">user_id :integer</text>
<text text-anchor="start" x="279.182" y="-35.3" font-family="Times,serif" font-size="14.00">cohort_id :integer</text>
<text text-anchor="start" x="279.182" y="-21.3" font-family="Times,serif" font-size="14.00">created_at :datetime</text>
<text text-anchor="start" x="279.182" y="-7.3" font-family="Times,serif" font-size="14.00">updated_at :datetime</text>
</g>
<!-- Cohort&#45;&gt;Contract -->
<g id="edge1" class="edge"><title>Cohort&#45;&gt;Contract</title>
<path fill="none" stroke="#568f19" d="M231.013,-393.66C224.775,-384.301 219.381,-374.313 215.688,-364 181.673,-269.018 169.121,-226.499 215.688,-137 226.144,-116.904 243.726,-100.551 262.334,-87.7318"/>
<ellipse fill="none" stroke="#568f19" cx="233.402" cy="-397.08" rx="4.00002" ry="4.00002"/>
<polygon fill="#568f19" stroke="#568f19" points="262.572,-87.5753 273.402,-85.8525 266.753,-84.8326 270.934,-82.0899 270.934,-82.0899 270.934,-82.0899 266.753,-84.8326 268.465,-78.3273 262.572,-87.5753 262.572,-87.5753"/>
</g>
<!-- CourseType -->
<g id="node4" class="node"><title>CourseType</title>
<path fill="none" stroke="black" d="M237.182,-200.5C237.182,-200.5 346.193,-200.5 346.193,-200.5 352.193,-200.5 358.193,-206.5 358.193,-212.5 358.193,-212.5 358.193,-288.5 358.193,-288.5 358.193,-294.5 352.193,-300.5 346.193,-300.5 346.193,-300.5 237.182,-300.5 237.182,-300.5 231.182,-300.5 225.182,-294.5 225.182,-288.5 225.182,-288.5 225.182,-212.5 225.182,-212.5 225.182,-206.5 231.182,-200.5 237.182,-200.5"/>
<text text-anchor="middle" x="291.688" y="-285.3" font-family="Times,serif" font-size="14.00">CourseType</text>
<polyline fill="none" stroke="black" points="225.182,-278.5 358.193,-278.5 "/>
<text text-anchor="start" x="233.182" y="-263.3" font-family="Times,serif" font-size="14.00">id :integer</text>
<text text-anchor="start" x="233.182" y="-249.3" font-family="Times,serif" font-size="14.00">name :string</text>
<text text-anchor="start" x="233.182" y="-235.3" font-family="Times,serif" font-size="14.00">cohort_id :integer</text>
<text text-anchor="start" x="233.182" y="-221.3" font-family="Times,serif" font-size="14.00">created_at :datetime</text>
<text text-anchor="start" x="233.182" y="-207.3" font-family="Times,serif" font-size="14.00">updated_at :datetime</text>
</g>
<!-- Cohort&#45;&gt;CourseType -->
<g id="edge3" class="edge"><title>Cohort&#45;&gt;CourseType</title>
<path fill="none" stroke="#7727d5" d="M291.688,-392.293C291.688,-365.641 291.688,-334.955 291.688,-309.047"/>
<ellipse fill="none" stroke="#7727d5" cx="291.688" cy="-396.483" rx="4" ry="4"/>
<ellipse fill="#7727d5" stroke="#7727d5" cx="291.688" cy="-304.815" rx="4" ry="4"/>
</g>
<!-- User -->
<g id="node5" class="node"><title>User</title>
<path fill="none" stroke="black" d="M388.41,-137.5C388.41,-137.5 568.966,-137.5 568.966,-137.5 574.966,-137.5 580.966,-143.5 580.966,-149.5 580.966,-149.5 580.966,-351.5 580.966,-351.5 580.966,-357.5 574.966,-363.5 568.966,-363.5 568.966,-363.5 388.41,-363.5 388.41,-363.5 382.41,-363.5 376.41,-357.5 376.41,-351.5 376.41,-351.5 376.41,-149.5 376.41,-149.5 376.41,-143.5 382.41,-137.5 388.41,-137.5"/>
<text text-anchor="middle" x="478.688" y="-348.3" font-family="Times,serif" font-size="14.00">User</text>
<polyline fill="none" stroke="black" points="376.41,-341.5 580.966,-341.5 "/>
<text text-anchor="start" x="384.41" y="-326.3" font-family="Times,serif" font-size="14.00">id :integer</text>
<text text-anchor="start" x="384.41" y="-312.3" font-family="Times,serif" font-size="14.00">email :string</text>
<text text-anchor="start" x="384.41" y="-298.3" font-family="Times,serif" font-size="14.00">encrypted_password :string</text>
<text text-anchor="start" x="384.41" y="-284.3" font-family="Times,serif" font-size="14.00">reset_password_token :string</text>
<text text-anchor="start" x="384.41" y="-270.3" font-family="Times,serif" font-size="14.00">reset_password_sent_at :datetime</text>
<text text-anchor="start" x="384.41" y="-256.3" font-family="Times,serif" font-size="14.00">remember_created_at :datetime</text>
<text text-anchor="start" x="384.41" y="-242.3" font-family="Times,serif" font-size="14.00">sign_in_count :integer</text>
<text text-anchor="start" x="384.41" y="-228.3" font-family="Times,serif" font-size="14.00">current_sign_in_at :datetime</text>
<text text-anchor="start" x="384.41" y="-214.3" font-family="Times,serif" font-size="14.00">last_sign_in_at :datetime</text>
<text text-anchor="start" x="384.41" y="-200.3" font-family="Times,serif" font-size="14.00">current_sign_in_ip :string</text>
<text text-anchor="start" x="384.41" y="-186.3" font-family="Times,serif" font-size="14.00">last_sign_in_ip :string</text>
<text text-anchor="start" x="384.41" y="-172.3" font-family="Times,serif" font-size="14.00">created_at :datetime</text>
<text text-anchor="start" x="384.41" y="-158.3" font-family="Times,serif" font-size="14.00">updated_at :datetime</text>
<text text-anchor="start" x="384.41" y="-144.3" font-family="Times,serif" font-size="14.00">role :string</text>
</g>
<!-- Cohort&#45;&gt;User -->
<g id="edge2" class="edge"><title>Cohort&#45;&gt;User</title>
<path fill="none" stroke="#71c8e2" d="M349.538,-393.081C355.952,-386.05 362.63,-378.729 369.422,-371.284"/>
<polygon fill="#71c8e2" stroke="#71c8e2" points="349.526,-393.095 339.462,-397.45 346.156,-396.789 342.786,-400.483 342.786,-400.483 342.786,-400.483 346.156,-396.789 346.111,-403.516 349.526,-393.095 349.526,-393.095"/>
<polygon fill="#71c8e2" stroke="#71c8e2" points="369.507,-371.19 379.571,-366.835 372.876,-367.496 376.246,-363.802 376.246,-363.802 376.246,-363.802 372.876,-367.496 372.921,-360.77 369.507,-371.19 369.507,-371.19"/>
</g>
<!-- User&#45;&gt;Contract -->
<g id="edge4" class="edge"><title>User&#45;&gt;Contract</title>
<path fill="none" stroke="#be788f" d="M394.248,-130.925C389.003,-123.56 383.866,-116.346 378.958,-109.454"/>
<ellipse fill="none" stroke="#be788f" cx="396.597" cy="-134.224" rx="4.00002" ry="4.00002"/>
<polygon fill="#be788f" stroke="#be788f" points="378.675,-109.056 376.539,-98.2999 375.774,-104.983 372.874,-100.91 372.874,-100.91 372.874,-100.91 375.774,-104.983 369.208,-103.521 378.675,-109.056 378.675,-109.056"/>
</g>
</g>
</svg>
