<?xml version="1.0" encoding="UTF-8" standalone="no"?>
<!DOCTYPE svg PUBLIC "-//W3C//DTD SVG 1.1//EN"
 "http://www.w3.org/Graphics/SVG/1.1/DTD/svg11.dtd">
<!-- Generated by graphviz version 2.38.0 (20140413.2041)
 -->
<!-- Title: models_diagram Pages: 1 -->
<svg width="756pt" height="579pt"
 viewBox="0.00 0.00 755.97 579.00" xmlns="http://www.w3.org/2000/svg" xmlns:xlink="http://www.w3.org/1999/xlink">
<g id="graph0" class="graph" transform="scale(1 1) rotate(0) translate(4 575)">
<title>models_diagram</title>
<polygon fill="white" stroke="none" points="-4,4 -4,-575 751.966,-575 751.966,4 -4,4"/>
<!-- _diagram_info -->
<g id="node1" class="node"><title>_diagram_info</title>
<text text-anchor="start" x="8" y="-535.6" font-family="Times,serif" font-size="13.00">Models diagram</text>
<text text-anchor="start" x="8" y="-522.6" font-family="Times,serif" font-size="13.00">Date: Apr 14 2015 &#45; 13:55</text>
<text text-anchor="start" x="8" y="-509.6" font-family="Times,serif" font-size="13.00">Migration version: 20150414124607</text>
<text text-anchor="start" x="8" y="-496.6" font-family="Times,serif" font-size="13.00">Generated by RailRoady 1.3.0</text>
<text text-anchor="start" x="8" y="-483.6" font-family="Times,serif" font-size="13.00">http://railroady.prestonlee.com</text>
</g>
<!-- Booking -->
<g id="node2" class="node"><title>Booking</title>
<path fill="none" stroke="black" d="M211.231,-235.5C211.231,-235.5 324.145,-235.5 324.145,-235.5 330.145,-235.5 336.145,-241.5 336.145,-247.5 336.145,-247.5 336.145,-323.5 336.145,-323.5 336.145,-329.5 330.145,-335.5 324.145,-335.5 324.145,-335.5 211.231,-335.5 211.231,-335.5 205.231,-335.5 199.231,-329.5 199.231,-323.5 199.231,-323.5 199.231,-247.5 199.231,-247.5 199.231,-241.5 205.231,-235.5 211.231,-235.5"/>
<text text-anchor="middle" x="267.688" y="-320.3" font-family="Times,serif" font-size="14.00">Booking</text>
<polyline fill="none" stroke="black" points="199.231,-313.5 336.145,-313.5 "/>
<text text-anchor="start" x="207.231" y="-298.3" font-family="Times,serif" font-size="14.00">id :integer</text>
<text text-anchor="start" x="207.231" y="-284.3" font-family="Times,serif" font-size="14.00">start_time :datetime</text>
<text text-anchor="start" x="207.231" y="-270.3" font-family="Times,serif" font-size="14.00">end_time :datetime</text>
<text text-anchor="start" x="207.231" y="-256.3" font-family="Times,serif" font-size="14.00">length :integer</text>
<text text-anchor="start" x="207.231" y="-242.3" font-family="Times,serif" font-size="14.00">classroom_id :integer</text>
</g>
<!-- Classroom -->
<g id="node3" class="node"><title>Classroom</title>
<path fill="none" stroke="black" d="M236.889,-484.5C236.889,-484.5 298.486,-484.5 298.486,-484.5 304.486,-484.5 310.486,-490.5 310.486,-496.5 310.486,-496.5 310.486,-530.5 310.486,-530.5 310.486,-536.5 304.486,-542.5 298.486,-542.5 298.486,-542.5 236.889,-542.5 236.889,-542.5 230.889,-542.5 224.889,-536.5 224.889,-530.5 224.889,-530.5 224.889,-496.5 224.889,-496.5 224.889,-490.5 230.889,-484.5 236.889,-484.5"/>
<text text-anchor="middle" x="267.688" y="-527.3" font-family="Times,serif" font-size="14.00">Classroom</text>
<polyline fill="none" stroke="black" points="224.889,-520.5 310.486,-520.5 "/>
<text text-anchor="start" x="232.889" y="-505.3" font-family="Times,serif" font-size="14.00">id :integer</text>
<text text-anchor="start" x="232.889" y="-491.3" font-family="Times,serif" font-size="14.00">name :string</text>
</g>
<!-- Classroom&#45;&gt;Booking -->
<g id="edge1" class="edge"><title>Classroom&#45;&gt;Booking</title>
<path fill="none" stroke="#2a025f" d="M267.688,-476.086C267.688,-440.976 267.688,-387.234 267.688,-345.922"/>
<ellipse fill="none" stroke="#2a025f" cx="267.688" cy="-480.334" rx="4" ry="4"/>
<polygon fill="#2a025f" stroke="#2a025f" points="267.688,-345.706 272.188,-335.706 267.688,-340.706 267.688,-335.706 267.688,-335.706 267.688,-335.706 267.688,-340.706 263.188,-335.706 267.688,-345.706 267.688,-345.706"/>
</g>
<!-- Cohort -->
<g id="node4" class="node"><title>Cohort</title>
<path fill="none" stroke="black" d="M372.182,-456.5C372.182,-456.5 481.193,-456.5 481.193,-456.5 487.193,-456.5 493.193,-462.5 493.193,-468.5 493.193,-468.5 493.193,-558.5 493.193,-558.5 493.193,-564.5 487.193,-570.5 481.193,-570.5 481.193,-570.5 372.182,-570.5 372.182,-570.5 366.182,-570.5 360.182,-564.5 360.182,-558.5 360.182,-558.5 360.182,-468.5 360.182,-468.5 360.182,-462.5 366.182,-456.5 372.182,-456.5"/>
<text text-anchor="middle" x="426.688" y="-555.3" font-family="Times,serif" font-size="14.00">Cohort</text>
<polyline fill="none" stroke="black" points="360.182,-548.5 493.193,-548.5 "/>
<text text-anchor="start" x="368.182" y="-533.3" font-family="Times,serif" font-size="14.00">id :integer</text>
<text text-anchor="start" x="368.182" y="-519.3" font-family="Times,serif" font-size="14.00">name :string</text>
<text text-anchor="start" x="368.182" y="-505.3" font-family="Times,serif" font-size="14.00">start_date :date</text>
<text text-anchor="start" x="368.182" y="-491.3" font-family="Times,serif" font-size="14.00">end_date :date</text>
<text text-anchor="start" x="368.182" y="-477.3" font-family="Times,serif" font-size="14.00">created_at :datetime</text>
<text text-anchor="start" x="368.182" y="-463.3" font-family="Times,serif" font-size="14.00">updated_at :datetime</text>
</g>
<!-- Cohort&#45;&gt;Booking -->
<g id="edge5" class="edge"><title>Cohort&#45;&gt;Booking</title>
<path fill="none" stroke="#32ee2a" d="M372.534,-449.885C364.636,-440.063 356.784,-429.887 349.688,-420 332.455,-395.989 315.079,-368.311 300.785,-344.404"/>
<ellipse fill="none" stroke="#32ee2a" cx="375.203" cy="-453.175" rx="4.00002" ry="4.00002"/>
<polygon fill="#32ee2a" stroke="#32ee2a" points="300.77,-344.379 299.534,-333.483 298.217,-340.08 295.664,-335.78 295.664,-335.78 295.664,-335.78 298.217,-340.08 291.795,-338.078 300.77,-344.379 300.77,-344.379"/>
</g>
<!-- Contract -->
<g id="node5" class="node"><title>Contract</title>
<path fill="none" stroke="black" d="M439.706,-0.5C439.706,-0.5 569.669,-0.5 569.669,-0.5 575.669,-0.5 581.669,-6.5 581.669,-12.5 581.669,-12.5 581.669,-102.5 581.669,-102.5 581.669,-108.5 575.669,-114.5 569.669,-114.5 569.669,-114.5 439.706,-114.5 439.706,-114.5 433.706,-114.5 427.706,-108.5 427.706,-102.5 427.706,-102.5 427.706,-12.5 427.706,-12.5 427.706,-6.5 433.706,-0.5 439.706,-0.5"/>
<text text-anchor="middle" x="504.688" y="-99.3" font-family="Times,serif" font-size="14.00">Contract</text>
<polyline fill="none" stroke="black" points="427.706,-92.5 581.669,-92.5 "/>
<text text-anchor="start" x="435.706" y="-77.3" font-family="Times,serif" font-size="14.00">id :integer</text>
<text text-anchor="start" x="435.706" y="-63.3" font-family="Times,serif" font-size="14.00">user_id :integer</text>
<text text-anchor="start" x="435.706" y="-49.3" font-family="Times,serif" font-size="14.00">cohort_id :integer</text>
<text text-anchor="start" x="435.706" y="-35.3" font-family="Times,serif" font-size="14.00">created_at :datetime</text>
<text text-anchor="start" x="435.706" y="-21.3" font-family="Times,serif" font-size="14.00">updated_at :datetime</text>
<text text-anchor="start" x="435.706" y="-7.3" font-family="Times,serif" font-size="14.00">acceptance_date :integer</text>
</g>
<!-- Cohort&#45;&gt;Contract -->
<g id="edge2" class="edge"><title>Cohort&#45;&gt;Contract</title>
<path fill="none" stroke="#780db5" d="M391.939,-448.739C388.128,-439.334 384.85,-429.581 382.688,-420 356.364,-303.378 329.5,-258.073 382.688,-151 391.247,-133.769 404.719,-118.887 419.642,-106.404"/>
<ellipse fill="none" stroke="#780db5" cx="393.538" cy="-452.513" rx="4.00002" ry="4.00002"/>
<polygon fill="#780db5" stroke="#780db5" points="419.739,-106.326 430.364,-103.614 423.649,-103.21 427.56,-100.094 427.56,-100.094 427.56,-100.094 423.649,-103.21 424.755,-96.5751 419.739,-106.326 419.739,-106.326"/>
</g>
<!-- CourseType -->
<g id="node6" class="node"><title>CourseType</title>
<path fill="none" stroke="black" d="M404.182,-221.5C404.182,-221.5 513.193,-221.5 513.193,-221.5 519.193,-221.5 525.193,-227.5 525.193,-233.5 525.193,-233.5 525.193,-337.5 525.193,-337.5 525.193,-343.5 519.193,-349.5 513.193,-349.5 513.193,-349.5 404.182,-349.5 404.182,-349.5 398.182,-349.5 392.182,-343.5 392.182,-337.5 392.182,-337.5 392.182,-233.5 392.182,-233.5 392.182,-227.5 398.182,-221.5 404.182,-221.5"/>
<text text-anchor="middle" x="458.688" y="-334.3" font-family="Times,serif" font-size="14.00">CourseType</text>
<polyline fill="none" stroke="black" points="392.182,-327.5 525.193,-327.5 "/>
<text text-anchor="start" x="400.182" y="-312.3" font-family="Times,serif" font-size="14.00">id :integer</text>
<text text-anchor="start" x="400.182" y="-298.3" font-family="Times,serif" font-size="14.00">name :string</text>
<text text-anchor="start" x="400.182" y="-284.3" font-family="Times,serif" font-size="14.00">cohort_id :integer</text>
<text text-anchor="start" x="400.182" y="-270.3" font-family="Times,serif" font-size="14.00">created_at :datetime</text>
<text text-anchor="start" x="400.182" y="-256.3" font-family="Times,serif" font-size="14.00">updated_at :datetime</text>
<text text-anchor="start" x="400.182" y="-242.3" font-family="Times,serif" font-size="14.00">details :text</text>
<text text-anchor="start" x="400.182" y="-228.3" font-family="Times,serif" font-size="14.00">duration :integer</text>
</g>
<!-- Cohort&#45;&gt;CourseType -->
<g id="edge4" class="edge"><title>Cohort&#45;&gt;CourseType</title>
<path fill="none" stroke="#0d7ff4" d="M435.792,-448.204C439.795,-419.928 444.511,-386.62 448.62,-357.605"/>
<ellipse fill="none" stroke="#0d7ff4" cx="435.2" cy="-452.384" rx="4.00001" ry="4.00001"/>
<ellipse fill="#0d7ff4" stroke="#0d7ff4" cx="449.201" cy="-353.503" rx="4.00001" ry="4.00001"/>
</g>
<!-- User -->
<g id="node7" class="node"><title>User</title>
<path fill="none" stroke="black" d="M555.41,-151.5C555.41,-151.5 735.966,-151.5 735.966,-151.5 741.966,-151.5 747.966,-157.5 747.966,-163.5 747.966,-163.5 747.966,-407.5 747.966,-407.5 747.966,-413.5 741.966,-419.5 735.966,-419.5 735.966,-419.5 555.41,-419.5 555.41,-419.5 549.41,-419.5 543.41,-413.5 543.41,-407.5 543.41,-407.5 543.41,-163.5 543.41,-163.5 543.41,-157.5 549.41,-151.5 555.41,-151.5"/>
<text text-anchor="middle" x="645.688" y="-404.3" font-family="Times,serif" font-size="14.00">User</text>
<polyline fill="none" stroke="black" points="543.41,-397.5 747.966,-397.5 "/>
<text text-anchor="start" x="551.41" y="-382.3" font-family="Times,serif" font-size="14.00">id :integer</text>
<text text-anchor="start" x="551.41" y="-368.3" font-family="Times,serif" font-size="14.00">email :string</text>
<text text-anchor="start" x="551.41" y="-354.3" font-family="Times,serif" font-size="14.00">encrypted_password :string</text>
<text text-anchor="start" x="551.41" y="-340.3" font-family="Times,serif" font-size="14.00">reset_password_token :string</text>
<text text-anchor="start" x="551.41" y="-326.3" font-family="Times,serif" font-size="14.00">reset_password_sent_at :datetime</text>
<text text-anchor="start" x="551.41" y="-312.3" font-family="Times,serif" font-size="14.00">remember_created_at :datetime</text>
<text text-anchor="start" x="551.41" y="-298.3" font-family="Times,serif" font-size="14.00">sign_in_count :integer</text>
<text text-anchor="start" x="551.41" y="-284.3" font-family="Times,serif" font-size="14.00">current_sign_in_at :datetime</text>
<text text-anchor="start" x="551.41" y="-270.3" font-family="Times,serif" font-size="14.00">last_sign_in_at :datetime</text>
<text text-anchor="start" x="551.41" y="-256.3" font-family="Times,serif" font-size="14.00">current_sign_in_ip :string</text>
<text text-anchor="start" x="551.41" y="-242.3" font-family="Times,serif" font-size="14.00">last_sign_in_ip :string</text>
<text text-anchor="start" x="551.41" y="-228.3" font-family="Times,serif" font-size="14.00">created_at :datetime</text>
<text text-anchor="start" x="551.41" y="-214.3" font-family="Times,serif" font-size="14.00">updated_at :datetime</text>
<text text-anchor="start" x="551.41" y="-200.3" font-family="Times,serif" font-size="14.00">role :string</text>
<text text-anchor="start" x="551.41" y="-186.3" font-family="Times,serif" font-size="14.00">full_name :string</text>
<text text-anchor="start" x="551.41" y="-172.3" font-family="Times,serif" font-size="14.00">dob :date</text>
<text text-anchor="start" x="551.41" y="-158.3" font-family="Times,serif" font-size="14.00">gender :string</text>
</g>
<!-- Cohort&#45;&gt;User -->
<g id="edge3" class="edge"><title>Cohort&#45;&gt;User</title>
<path fill="none" stroke="#d8db17" d="M500.985,-451.772C512.566,-441.487 524.169,-430.674 534.688,-420 535.223,-419.457 535.759,-418.911 536.295,-418.363"/>
<polygon fill="#d8db17" stroke="#d8db17" points="500.9,-451.847 490.418,-455.069 497.144,-455.148 493.389,-458.449 493.389,-458.449 493.389,-458.449 497.144,-455.148 496.36,-461.829 500.9,-451.847 500.9,-451.847"/>
<polygon fill="#d8db17" stroke="#d8db17" points="536.332,-418.325 546.511,-414.246 539.801,-414.724 543.27,-411.123 543.27,-411.123 543.27,-411.123 539.801,-414.724 540.029,-408.001 536.332,-418.325 536.332,-418.325"/>
</g>
<!-- User&#45;&gt;Contract -->
<g id="edge6" class="edge"><title>User&#45;&gt;Contract</title>
<path fill="none" stroke="#600654" d="M558.354,-144.518C553.788,-137.199 549.321,-130.04 545.038,-123.175"/>
<ellipse fill="none" stroke="#600654" cx="560.531" cy="-148.008" rx="4.00002" ry="4.00002"/>
<polygon fill="#600654" stroke="#600654" points="545.01,-123.13 543.534,-112.263 542.363,-118.887 539.716,-114.645 539.716,-114.645 539.716,-114.645 542.363,-118.887 535.899,-117.027 545.01,-123.13 545.01,-123.13"/>
</g>
</g>
</svg>
